HIERARCHY
ROOT Hips
{
	OFFSET 0.000000 0.000000 0.000000
	CHANNELS 6 Xposition Yposition Zposition Xrotation Yrotation Zrotation
	JOINT LeftUpLeg_virtual
	{
		OFFSET 0.000000 0.000000 0.000000
		CHANNELS 3 Xrotation Yrotation Zrotation
		JOINT LeftUpLeg
		{
			OFFSET 11.394100 -6.187798 -0.413800
			CHANNELS 3 Xrotation Yrotation Zrotation
			JOINT LeftLeg
			{
				OFFSET 0.430247 -32.302673 3.732800
				CHANNELS 3 Xrotation Yrotation Zrotation
				JOINT LeftFoot
				{
					OFFSET -0.430247 -48.264931 -6.423300
					CHANNELS 3 Xrotation Yrotation Zrotation
					JOINT LeftToeBase
					{
						OFFSET 4.230900 -16.068199 23.438400
						CHANNELS 3 Xrotation Yrotation Zrotation
						JOINT LeftToe_End
						{
							OFFSET 4.510700 0.695400 19.974600
							CHANNELS 3 Xrotation Yrotation Zrotation
							End Site
							{
								OFFSET 0 0 0
							}
						}
					}
				}
			}
		}
	}
	JOINT RightUpLeg_virtual
	{
		OFFSET 0.000000 0.000000 0.000000
		CHANNELS 3 Xrotation Yrotation Zrotation
		JOINT RightUpLeg
		{
			OFFSET -11.333700 -6.187798 -0.413800
			CHANNELS 3 Xrotation Yrotation Zrotation
			JOINT RightLeg
			{
				OFFSET -0.430392 -32.302628 3.733000
				CHANNELS 3 Xrotation Yrotation Zrotation
				JOINT RightFoot
				{
					OFFSET 0.430392 -48.264973 -6.423500
					CHANNELS 3 Xrotation Yrotation Zrotation
					JOINT RightToeBase
					{
						OFFSET -4.230900 -16.068199 23.438400
						CHANNELS 3 Xrotation Yrotation Zrotation
						JOINT RightToe_End
						{
							OFFSET -4.510700 0.695400 19.974600
							CHANNELS 3 Xrotation Yrotation Zrotation
							End Site
							{
								OFFSET 0 0 0
							}
						}
					}
				}
			}
		}
	}
	JOINT Spine_virtual
	{
		OFFSET 0.000000 0.000000 0.000000
		CHANNELS 3 Xrotation Yrotation Zrotation
		JOINT Spine
		{
			OFFSET -0.002400 12.777504 0.315300
			CHANNELS 3 Xrotation Yrotation Zrotation
			JOINT Spine1
			{
				OFFSET -0.002067 5.816869 0.032633
				CHANNELS 3 Xrotation Yrotation Zrotation
				JOINT Spine1_split
				{
					OFFSET -0.002067 5.816869 0.032633
					CHANNELS 3 Xrotation Yrotation Zrotation
					JOINT Spine2
					{
						OFFSET -0.002067 5.816869 0.032633
						CHANNELS 3 Xrotation Yrotation Zrotation
						JOINT Neck_virtual
						{
							OFFSET 0.000000 0.000000 0.000000
							CHANNELS 3 Xrotation Yrotation Zrotation
							JOINT Neck
							{
								OFFSET -0.003700 21.199493 -0.826900
								CHANNELS 3 Xrotation Yrotation Zrotation
								JOINT Head
								{
									OFFSET 0.000000 20.442200 4.834800
									CHANNELS 3 Xrotation Yrotation Zrotation
									JOINT HeadTop_End
									{
										OFFSET 0.000000 34.668396 4.968400
										CHANNELS 3 Xrotation Yrotation Zrotation
										End Site
										{
											OFFSET 0 0 0
										}
									}
								}
							}
						}
						JOINT LeftShoulder_virtual
						{
							OFFSET 0.000000 0.000000 0.000000
							CHANNELS 3 Xrotation Yrotation Zrotation
							JOINT LeftShoulder
							{
								OFFSET 3.288150 8.794197 -1.372250
								CHANNELS 3 Xrotation Yrotation Zrotation
								JOINT LeftShoulder_split
								{
									OFFSET 3.288150 8.794197 -1.372250
									CHANNELS 3 Xrotation Yrotation Zrotation
									JOINT LeftArm
									{
										OFFSET 11.953299 -2.279007 -0.146200
										CHANNELS 3 Xrotation Yrotation Zrotation
										JOINT LeftForeArm
										{
											OFFSET 18.448900 0.000000 0.000000
											CHANNELS 3 Xrotation Yrotation Zrotation
											JOINT LeftHand
											{
												OFFSET 29.527798 0.000000 0.000000
												CHANNELS 3 Xrotation Yrotation Zrotation
												End Site
												{
													OFFSET 0 0 0
												}
											}
										}
									}
								}
							}
						}
						JOINT RightShoulder_virtual
						{
							OFFSET 0.000000 0.000000 0.000000
							CHANNELS 3 Xrotation Yrotation Zrotation
							JOINT RightShoulder
							{
								OFFSET -3.249400 8.794197 -1.372250
								CHANNELS 3 Xrotation Yrotation Zrotation
								JOINT RightShoulder_split
								{
									OFFSET -3.249400 8.794197 -1.372250
									CHANNELS 3 Xrotation Yrotation Zrotation
									JOINT RightArm
									{
										OFFSET -11.953299 -2.279007 -0.146200
										CHANNELS 3 Xrotation Yrotation Zrotation
										JOINT RightForeArm
										{
											OFFSET -18.448900 0.000000 0.000000
											CHANNELS 3 Xrotation Yrotation Zrotation
											JOINT RightHand
											{
												OFFSET -29.527802 0.000000 0.000000
												CHANNELS 3 Xrotation Yrotation Zrotation
												End Site
												{
													OFFSET 0 0 0
												}
											}
										}
									}
								}
							}
						}
					}
				}
			}
		}
	}
}
MOTION
Frames: 4
Frame Time: 0.03333333
-0.084655 89.070892 -0.833637 0.000000 0.000000 0.000000 -7.351982 -48.175711 0.058714 -23.897695 12.346064 16.206661 49.854818 3.761292 4.553505 -22.948466 -8.852971 -11.394193 -5.665664 0.461648 1.116330 0.000000 0.000000 0.000000 -9.132028 -46.980835 0.162487 -28.708310 -6.390172 -31.228250 52.015466 -6.851842 -7.638817 -16.155585 -5.877829 21.619745 -6.079239 0.999932 -0.738985 0.000000 0.000000 0.000000 -7.482079 -48.543415 -1.026707 11.092116 7.335149 -2.308301 1.213082 1.521954 -0.650923 0.304083 -0.139045 1.377747 0.000000 0.000000 0.000000 0.379985 2.115482 -0.502812 2.974328 13.920162 5.962526 7.142210 19.094460 -2.720864 0.000000 0.000000 0.000000 2.860421 1.335284 -0.053910 1.165724 3.783957 -7.078330 -5.249164 -5.015452 -3.662534 -50.118880 6.279943 -47.257030 179.735513 -72.228144 -177.667263 0.000000 0.000000 0.000000 2.787780 1.823747 -0.358780 3.731026 11.082099 -5.534401 0.969399 -4.745751 -0.991345 -49.983277 20.947357 87.340921 177.072272 71.544346 -176.841903 0.000000 0.000000 0.000000 
0.216371 87.937927 0.685284 0.000000 0.000000 0.000000 -8.367894 -49.954419 -0.610317 -25.895168 11.259804 16.545860 52.994908 4.532319 3.907155 -21.234201 -7.899664 -11.970390 -7.182842 0.564684 0.630821 0.000000 0.000000 0.000000 -9.773694 -47.869869 -0.219822 -29.082594 -5.855470 -31.686538 54.515872 -6.248143 -7.543625 -18.251367 -6.132502 21.236429 -2.966821 0.783247 -0.421597 0.000000 0.000000 0.000000 -7.822896 -49.175993 -1.236921 11.836113 7.520039 -2.347625 1.370193 1.374245 -0.618288 0.616692 -0.146881 1.408685 0.000000 0.000000 0.000000 0.462640 2.002715 -0.553307 2.998025 13.802064 5.907399 7.289499 19.205625 -2.656127 0.000000 0.000000 0.000000 2.800542 1.285425 0.018226 1.075844 3.496558 -7.380424 -3.128807 -6.910797 -3.270687 -52.382992 6.376201 -47.957559 176.402312 -72.315256 178.629896 0.000000 0.000000 0.000000 2.795915 1.732945 -0.383549 3.833934 11.693411 -5.539721 1.469036 -4.884300 0.002412 -51.213233 23.035173 87.552329 177.556396 72.125288 -177.119728 0.000000 0.000000 0.000000 
0.285698 85.807457 2.672840 0.000000 0.000000 0.000000 -9.277902 -51.809789 -1.324710 -29.819366 10.261885 17.691942 59.847326 4.648077 2.524207 -20.689676 -8.262608 -12.015776 -10.208594 -0.068864 2.958972 0.000000 0.000000 0.000000 -10.051471 -48.595929 -0.546409 -29.670110 -4.616114 -32.169597 57.482107 -5.064168 -7.876940 -19.630522 -6.704709 22.065836 -2.443722 0.580636 0.386071 0.000000 0.000000 0.000000 -8.444065 -50.215930 -1.619599 13.028157 8.036879 -2.124077 1.231086 1.235752 -0.765107 0.562854 -0.160353 1.095529 0.000000 0.000000 0.000000 0.126237 1.820876 -0.751685 2.587007 13.924844 5.893523 7.960137 19.310707 -2.313009 0.000000 0.000000 0.000000 2.462394 1.198027 -0.061428 0.936456 3.233838 -7.994637 -1.581751 -7.560645 -2.555809 -53.225755 6.171642 -48.405954 171.411998 -72.893746 173.259100 0.000000 0.000000 0.000000 2.348650 1.555266 -0.547375 3.853540 12.397405 -5.349586 1.419033 -4.186492 0.489116 -52.190053 23.909668 86.851552 178.291051 73.089608 -178.159747 0.000000 0.000000 0.000000 
0.356898 83.113739 4.819302 0.000000 0.000000 0.000000 -9.929580 -53.494581 -1.881320 -35.810098 8.666144 19.688755 69.527829 2.957494 1.330218 -20.237750 -10.043190 -13.126083 -11.697962 -1.052140 6.030009 0.000000 0.000000 0.000000 -9.933838 -49.366790 -0.636953 -30.489910 -3.073909 -32.772105 60.316472 -3.519586 -8.522060 -20.050534 -7.276237 23.647618 -4.452462 0.339352 1.442424 0.000000 0.000000 0.000000 -9.145169 -51.765847 -2.040105 14.471125 8.755263 -1.679180 0.875989 1.200868 -1.070508 0.390227 0.300963 0.710333 0.000000 0.000000 0.000000 -0.560458 1.693119 -1.027723 1.659646 14.264220 5.912491 8.813742 19.678321 -1.927649 0.000000 0.000000 0.000000 1.865052 1.135778 -0.254321 0.806809 3.268424 -8.664086 -0.403946 -6.762180 -1.534953 -51.913170 6.937252 -47.865628 167.284269 -72.828968 168.858081 0.000000 0.000000 0.000000 1.492864 1.378453 -0.832401 3.762248 13.045123 -5.154552 1.308029 -2.850893 0.570195 -52.892684 23.388822 85.504673 179.910530 74.070649 179.457989 0.000000 0.000000 0.000000 
